<?xml version="1.0" encoding="utf-8"?>
<!-- Generator: Adobe Illustrator 27.5.0, SVG Export Plug-In . SVG Version: 6.00 Build 0)  -->
<svg version="1.1" xmlns="http://www.w3.org/2000/svg" xmlns:xlink="http://www.w3.org/1999/xlink" x="0px" y="0px"
	 viewBox="0 0 500 500" style="enable-background:new 0 0 500 500;" xml:space="preserve">
<g id="BACKGROUND">
	<rect style="fill:#FFFFFF;" width="500" height="500"/>
</g>
<g id="OBJECTS">
	<g>
		<g>
			<g>
				<g>
					<path style="fill:#E4F2FF;" d="M41.47,167.376c8.527-20.083,25.399-45.281,41.802-59.666
						c22.496-19.729,51.606-27.592,72.942-32.154c48.539-10.38,102.612,1.685,105.625,42.371
						c1.197,16.161-10.239,42.828-2.616,60.966c7.186,17.097,9.533,24.321,25.773,33.279c18.902,10.426,28.417,11.509,37.231,13.85
						c25.228,6.702,32.277-22.626,82.915-8.817c60.843,16.592,68.439,85.666,61.541,124.514
						c-6.898,38.848-37.298,84.517-73.076,101.151c-10.191,4.738-35.367,10.951-35.367,10.951l-165.213,2.596
						c0,0-96.423-11.512-144.763-90.754C14.743,310.714,13.932,232.237,41.47,167.376z"/>
					<ellipse style="fill:#E4F2FF;" cx="401.449" cy="92.523" rx="53.431" ry="48.94"/>
				</g>
			</g>
			<g>
				<path style="fill:none;stroke:#92CDFE;stroke-miterlimit:10;" d="M436.171,195.386c-0.253,0.712,0.489,1.647,1.716,2.271
					l-3.108,7.393c-1.666-0.45-3.349-0.646-5.005-0.607l-0.257-2.665c0.478-0.078,0.827-0.313,0.817-0.577
					c-0.012-0.31-0.512-0.542-1.117-0.519c-0.605,0.024-1.085,0.294-1.073,0.605c0.01,0.262,0.37,0.467,0.846,0.51l-0.047,2.686
					c-1.852,0.132-3.658,0.555-5.357,1.239l-3.893-7.105c1.177-0.75,1.833-1.768,1.505-2.457c-0.384-0.807-1.971-0.854-3.545-0.105
					c-1.573,0.749-2.538,2.01-2.153,2.817c0.325,0.682,1.51,0.819,2.819,0.393l3.069,7.523c-1.445,0.828-2.775,1.86-3.945,3.073
					l-2.128-1.754c0.283-0.393,0.364-0.806,0.169-0.986c-0.228-0.211-0.746-0.021-1.157,0.423c-0.411,0.444-0.559,0.975-0.331,1.186
					c0.193,0.178,0.592,0.068,0.959-0.238l1.918,1.987c-1.181,1.348-2.171,2.895-2.915,4.614l-7.827-2.286
					c0.302-1.362,0.046-2.546-0.673-2.801c-0.842-0.299-1.997,0.79-2.581,2.432c-0.583,1.642-0.373,3.216,0.469,3.515
					c0.712,0.253,1.647-0.489,2.271-1.716l7.524,3.163c-0.46,1.649-0.672,3.317-0.651,4.959l-2.744,0.265
					c-0.078-0.478-0.313-0.827-0.577-0.817c-0.31,0.012-0.542,0.512-0.519,1.117c0.024,0.605,0.294,1.085,0.604,1.073
					c0.262-0.01,0.466-0.37,0.51-0.846l2.756,0.049c0.111,1.827,0.51,3.612,1.16,5.295l-7.125,3.904
					c-0.748-1.156-1.754-1.797-2.436-1.473c-0.807,0.384-0.854,1.971-0.105,3.544c0.749,1.574,2.01,2.538,2.817,2.154
					c0.689-0.328,0.822-1.532,0.381-2.856l7.501-3.061c0.817,1.476,1.845,2.837,3.061,4.035l-1.711,2.076
					c-0.39-0.276-0.796-0.354-0.974-0.162c-0.211,0.228-0.021,0.746,0.423,1.157c0.444,0.411,0.975,0.559,1.186,0.331
					c0.18-0.194,0.066-0.599-0.246-0.969l1.929-1.861c1.339,1.2,2.882,2.209,4.598,2.973l-2.248,7.698
					c-1.346-0.289-2.511-0.031-2.764,0.681c-0.299,0.842,0.79,1.998,2.432,2.58c1.642,0.583,3.216,0.373,3.515-0.469
					c0.255-0.719-0.502-1.664-1.75-2.289l3.096-7.364c1.686,0.49,3.392,0.72,5.073,0.706l0.247,2.567
					c-0.471,0.081-0.814,0.313-0.803,0.575c0.012,0.31,0.512,0.542,1.117,0.519c0.605-0.024,1.085-0.294,1.073-0.604
					c-0.01-0.265-0.377-0.471-0.859-0.512l0.046-2.571c1.867-0.103,3.69-0.505,5.408-1.17l3.799,6.934
					c-1.156,0.748-1.797,1.754-1.473,2.436c0.384,0.807,1.971,0.854,3.545,0.105c1.574-0.749,2.538-2.01,2.154-2.817
					c-0.328-0.689-1.532-0.822-2.856-0.381l-2.978-7.299c1.504-0.832,2.889-1.882,4.104-3.128l1.932,1.593
					c-0.276,0.39-0.354,0.796-0.162,0.974c0.228,0.211,0.746,0.021,1.157-0.423c0.411-0.444,0.559-0.975,0.331-1.186
					c-0.194-0.18-0.599-0.066-0.969,0.246l-1.735-1.798c1.217-1.367,2.235-2.943,2.997-4.699l7.539,2.202
					c-0.289,1.346-0.031,2.511,0.681,2.764c0.842,0.299,1.997-0.79,2.581-2.432c0.583-1.642,0.373-3.216-0.47-3.515
					c-0.719-0.255-1.664,0.502-2.289,1.75l-7.232-3.041c0.48-1.702,0.694-3.424,0.662-5.118l2.487-0.24
					c0.081,0.471,0.313,0.814,0.575,0.804c0.31-0.012,0.542-0.512,0.519-1.117c-0.024-0.605-0.294-1.085-0.604-1.073
					c-0.265,0.01-0.471,0.377-0.512,0.859l-2.497-0.044c-0.123-1.892-0.553-3.737-1.252-5.47l6.914-3.788
					c0.75,1.177,1.768,1.833,2.457,1.505c0.807-0.384,0.854-1.971,0.105-3.545c-0.749-1.573-2.01-2.538-2.817-2.153
					c-0.682,0.325-0.819,1.51-0.393,2.819l-7.321,2.987c-0.842-1.473-1.897-2.827-3.14-4.015l1.636-1.985
					c0.393,0.283,0.806,0.364,0.986,0.17c0.211-0.228,0.021-0.746-0.423-1.157c-0.444-0.411-0.975-0.559-1.186-0.331
					c-0.178,0.193-0.068,0.592,0.238,0.959l-1.856,1.792c-1.376-1.197-2.956-2.197-4.716-2.939l2.24-7.667
					c1.362,0.302,2.546,0.046,2.801-0.673c0.299-0.842-0.79-1.998-2.432-2.58C438.043,194.333,436.469,194.544,436.171,195.386z"/>
				<path style="fill:none;stroke:#92CDFE;stroke-miterlimit:10;" d="M463.438,83.423c-0.174,0.489,0.336,1.131,1.179,1.56
					l-2.135,5.079c-1.145-0.309-2.301-0.444-3.439-0.417l-0.177-1.831c0.328-0.054,0.568-0.215,0.561-0.397
					c-0.008-0.213-0.352-0.373-0.767-0.356c-0.416,0.016-0.746,0.202-0.737,0.415c0.007,0.18,0.254,0.321,0.581,0.35l-0.033,1.845
					c-1.272,0.09-2.513,0.381-3.681,0.851l-2.675-4.881c0.809-0.515,1.259-1.215,1.034-1.688c-0.264-0.554-1.354-0.587-2.435-0.072
					c-1.081,0.515-1.743,1.381-1.48,1.936c0.223,0.469,1.037,0.563,1.937,0.27l2.109,5.169c-0.993,0.569-1.907,1.278-2.711,2.111
					l-1.462-1.205c0.194-0.27,0.25-0.554,0.116-0.677c-0.157-0.145-0.512-0.015-0.795,0.291c-0.282,0.305-0.384,0.67-0.228,0.815
					c0.132,0.122,0.407,0.047,0.659-0.163l1.318,1.366c-0.811,0.926-1.491,1.989-2.003,3.17l-5.377-1.571
					c0.207-0.936,0.031-1.749-0.463-1.925c-0.579-0.205-1.372,0.543-1.773,1.671c-0.401,1.128-0.256,2.209,0.323,2.415
					c0.489,0.174,1.131-0.336,1.56-1.179l5.169,2.173c-0.316,1.133-0.462,2.279-0.447,3.407l-1.885,0.182
					c-0.054-0.328-0.215-0.568-0.396-0.561c-0.213,0.008-0.373,0.352-0.356,0.767c0.016,0.415,0.202,0.746,0.415,0.737
					c0.18-0.007,0.32-0.254,0.35-0.581l1.894,0.034c0.077,1.256,0.351,2.481,0.797,3.638l-4.896,2.682
					c-0.514-0.794-1.205-1.235-1.674-1.012c-0.554,0.264-0.587,1.354-0.072,2.435c0.515,1.081,1.381,1.743,1.936,1.479
					c0.473-0.225,0.565-1.052,0.262-1.962l5.154-2.103c0.561,1.014,1.268,1.949,2.103,2.772l-1.175,1.426
					c-0.268-0.19-0.547-0.243-0.669-0.111c-0.145,0.157-0.015,0.512,0.291,0.795c0.305,0.282,0.67,0.384,0.815,0.228
					c0.124-0.134,0.046-0.412-0.169-0.666l1.325-1.279c0.92,0.825,1.98,1.518,3.159,2.042l-1.545,5.289
					c-0.925-0.198-1.725-0.021-1.899,0.468c-0.205,0.579,0.543,1.372,1.671,1.773c1.128,0.401,2.21,0.256,2.415-0.323
					c0.175-0.494-0.345-1.143-1.202-1.572l2.127-5.059c1.158,0.337,2.33,0.494,3.485,0.485l0.17,1.764
					c-0.323,0.055-0.559,0.215-0.552,0.395c0.008,0.213,0.352,0.372,0.768,0.356c0.415-0.016,0.745-0.202,0.737-0.415
					c-0.007-0.182-0.259-0.323-0.59-0.351l0.031-1.766c1.283-0.071,2.535-0.347,3.716-0.804l2.61,4.764
					c-0.794,0.514-1.235,1.205-1.012,1.674c0.264,0.554,1.354,0.587,2.435,0.072c1.081-0.515,1.743-1.381,1.479-1.936
					c-0.225-0.473-1.053-0.564-1.962-0.262l-2.046-5.015c1.033-0.571,1.985-1.293,2.82-2.149l1.328,1.094
					c-0.19,0.268-0.243,0.547-0.111,0.67c0.157,0.145,0.512,0.015,0.795-0.291c0.282-0.305,0.384-0.67,0.228-0.815
					c-0.134-0.124-0.412-0.046-0.666,0.169l-1.192-1.235c0.836-0.939,1.536-2.022,2.059-3.229l5.18,1.513
					c-0.199,0.925-0.021,1.725,0.468,1.899c0.579,0.205,1.372-0.543,1.773-1.671c0.4-1.128,0.256-2.21-0.323-2.415
					c-0.494-0.175-1.143,0.345-1.573,1.202l-4.969-2.089c0.33-1.17,0.477-2.353,0.455-3.517l1.708-0.165
					c0.055,0.323,0.215,0.559,0.395,0.552c0.213-0.008,0.373-0.352,0.356-0.767c-0.016-0.416-0.202-0.746-0.415-0.737
					c-0.182,0.007-0.323,0.259-0.351,0.59l-1.716-0.03c-0.085-1.3-0.38-2.568-0.86-3.758l4.75-2.603
					c0.515,0.809,1.215,1.259,1.688,1.034c0.554-0.264,0.587-1.354,0.072-2.435c-0.515-1.081-1.381-1.743-1.936-1.479
					c-0.469,0.223-0.563,1.037-0.27,1.937l-5.03,2.052c-0.579-1.012-1.303-1.943-2.157-2.758l1.124-1.364
					c0.27,0.194,0.554,0.25,0.677,0.116c0.145-0.157,0.014-0.512-0.291-0.795c-0.305-0.282-0.67-0.384-0.815-0.228
					c-0.122,0.132-0.047,0.407,0.163,0.659l-1.275,1.231c-0.946-0.822-2.031-1.51-3.24-2.019l1.539-5.268
					c0.936,0.207,1.749,0.031,1.925-0.463c0.205-0.579-0.543-1.372-1.671-1.773C464.725,82.7,463.643,82.844,463.438,83.423z"/>
				<path style="fill:none;stroke:#92CDFE;stroke-miterlimit:10;" d="M55.504,138.084c-0.253,0.712,0.489,1.647,1.716,2.271
					l-3.108,7.393c-1.666-0.45-3.349-0.646-5.005-0.607l-0.257-2.665c0.478-0.078,0.827-0.313,0.817-0.577
					c-0.012-0.31-0.512-0.542-1.117-0.519c-0.605,0.024-1.085,0.294-1.073,0.605c0.01,0.262,0.37,0.466,0.846,0.51l-0.048,2.686
					c-1.852,0.132-3.658,0.555-5.357,1.239l-3.893-7.105c1.177-0.75,1.833-1.768,1.505-2.457c-0.384-0.807-1.971-0.854-3.545-0.105
					c-1.573,0.749-2.538,2.01-2.153,2.817c0.325,0.682,1.51,0.819,2.819,0.393l3.069,7.523c-1.445,0.828-2.775,1.86-3.946,3.073
					l-2.128-1.754c0.282-0.393,0.364-0.806,0.169-0.986c-0.228-0.211-0.746-0.021-1.157,0.423c-0.411,0.444-0.559,0.975-0.331,1.186
					c0.193,0.178,0.592,0.068,0.959-0.238l1.918,1.988c-1.181,1.348-2.171,2.895-2.915,4.614l-7.827-2.286
					c0.302-1.362,0.046-2.546-0.673-2.801c-0.842-0.299-1.997,0.79-2.58,2.432c-0.583,1.642-0.373,3.216,0.469,3.515
					c0.712,0.253,1.647-0.488,2.271-1.716l7.524,3.163c-0.46,1.649-0.673,3.316-0.651,4.959l-2.744,0.264
					c-0.078-0.478-0.313-0.827-0.577-0.817c-0.31,0.012-0.542,0.512-0.519,1.117c0.024,0.605,0.294,1.085,0.604,1.073
					c0.262-0.01,0.466-0.37,0.51-0.846l2.756,0.049c0.111,1.827,0.51,3.612,1.16,5.295l-7.125,3.904
					c-0.748-1.156-1.754-1.797-2.436-1.472c-0.807,0.384-0.854,1.971-0.105,3.544c0.749,1.574,2.01,2.537,2.818,2.153
					c0.688-0.328,0.821-1.532,0.381-2.856l7.501-3.061c0.817,1.476,1.845,2.837,3.061,4.035l-1.711,2.076
					c-0.39-0.276-0.797-0.354-0.974-0.162c-0.211,0.228-0.021,0.746,0.423,1.156c0.444,0.411,0.976,0.559,1.186,0.331
					c0.18-0.194,0.066-0.6-0.246-0.969l1.929-1.861c1.339,1.2,2.882,2.209,4.598,2.973l-2.248,7.698
					c-1.346-0.289-2.511-0.031-2.764,0.681c-0.299,0.842,0.79,1.997,2.432,2.58c1.642,0.583,3.216,0.373,3.515-0.469
					c0.255-0.719-0.502-1.664-1.75-2.289l3.096-7.364c1.686,0.49,3.392,0.72,5.073,0.705l0.247,2.567
					c-0.471,0.081-0.814,0.313-0.804,0.575c0.012,0.31,0.512,0.542,1.117,0.519c0.605-0.023,1.085-0.294,1.073-0.604
					c-0.01-0.265-0.377-0.471-0.859-0.511l0.046-2.571c1.867-0.103,3.69-0.505,5.408-1.17l3.799,6.934
					c-1.156,0.748-1.797,1.754-1.472,2.436c0.384,0.807,1.971,0.854,3.545,0.105c1.573-0.749,2.538-2.011,2.153-2.817
					c-0.328-0.689-1.532-0.822-2.856-0.381l-2.978-7.299c1.504-0.832,2.889-1.882,4.104-3.127l1.932,1.593
					c-0.276,0.39-0.354,0.797-0.162,0.975c0.228,0.211,0.746,0.021,1.157-0.423c0.411-0.444,0.559-0.976,0.331-1.186
					c-0.194-0.18-0.6-0.066-0.969,0.246l-1.735-1.798c1.217-1.367,2.235-2.943,2.997-4.699l7.539,2.202
					c-0.289,1.346-0.031,2.511,0.681,2.764c0.842,0.299,1.998-0.79,2.58-2.433c0.583-1.642,0.373-3.216-0.469-3.515
					c-0.719-0.255-1.664,0.502-2.289,1.75l-7.232-3.041c0.48-1.702,0.694-3.424,0.662-5.118l2.487-0.24
					c0.081,0.471,0.313,0.814,0.575,0.803c0.31-0.012,0.542-0.512,0.519-1.117c-0.024-0.605-0.295-1.085-0.604-1.073
					c-0.265,0.011-0.471,0.377-0.511,0.86l-2.497-0.044c-0.123-1.892-0.553-3.737-1.252-5.47l6.914-3.788
					c0.75,1.177,1.768,1.833,2.457,1.505c0.807-0.384,0.854-1.971,0.105-3.545c-0.749-1.573-2.01-2.538-2.817-2.153
					c-0.682,0.325-0.819,1.51-0.393,2.819l-7.321,2.987c-0.842-1.473-1.897-2.828-3.14-4.015l1.636-1.985
					c0.393,0.282,0.806,0.364,0.986,0.169c0.211-0.228,0.021-0.746-0.423-1.157c-0.444-0.411-0.976-0.559-1.186-0.331
					c-0.178,0.193-0.068,0.592,0.238,0.959l-1.856,1.792c-1.376-1.197-2.956-2.197-4.716-2.939l2.239-7.668
					c1.362,0.302,2.546,0.046,2.801-0.673c0.299-0.842-0.79-1.997-2.432-2.58C57.376,137.031,55.803,137.242,55.504,138.084z"/>
				<path style="fill:none;stroke:#92CDFE;stroke-miterlimit:10;" d="M63.598,243.703c-0.143,0.402,0.276,0.93,0.969,1.282
					l-1.755,4.174c-0.941-0.254-1.891-0.365-2.826-0.343l-0.145-1.505c0.27-0.044,0.467-0.177,0.461-0.326
					c-0.007-0.175-0.289-0.306-0.631-0.293c-0.341,0.013-0.613,0.166-0.606,0.341c0.006,0.148,0.209,0.263,0.478,0.288l-0.027,1.517
					c-1.046,0.074-2.066,0.313-3.025,0.7l-2.198-4.012c0.664-0.423,1.035-0.998,0.85-1.387c-0.217-0.456-1.113-0.482-2.001-0.059
					c-0.888,0.423-1.433,1.135-1.216,1.591c0.183,0.385,0.852,0.462,1.592,0.222l1.733,4.248c-0.816,0.467-1.567,1.05-2.228,1.735
					l-1.201-0.99c0.16-0.222,0.205-0.455,0.096-0.556c-0.129-0.119-0.421-0.012-0.653,0.239s-0.316,0.551-0.187,0.67
					c0.109,0.1,0.334,0.038,0.541-0.134l1.083,1.122c-0.667,0.761-1.226,1.634-1.646,2.605l-4.419-1.291
					c0.171-0.769,0.026-1.438-0.38-1.582c-0.476-0.169-1.128,0.446-1.457,1.374c-0.329,0.927-0.21,1.816,0.265,1.985
					c0.402,0.143,0.93-0.276,1.282-0.969l4.248,1.786c-0.259,0.931-0.38,1.873-0.368,2.8l-1.549,0.149
					c-0.044-0.27-0.176-0.467-0.326-0.461c-0.175,0.007-0.306,0.289-0.293,0.631c0.013,0.341,0.166,0.613,0.341,0.606
					c0.148-0.006,0.263-0.209,0.288-0.478l1.556,0.028c0.063,1.032,0.288,2.039,0.655,2.99l-4.023,2.204
					c-0.422-0.653-0.99-1.015-1.375-0.831c-0.456,0.217-0.482,1.113-0.059,2.001c0.423,0.888,1.135,1.433,1.591,1.216
					c0.389-0.185,0.464-0.865,0.215-1.612l4.235-1.728c0.461,0.833,1.042,1.602,1.728,2.279l-0.966,1.172
					c-0.22-0.156-0.45-0.2-0.55-0.091c-0.119,0.129-0.012,0.421,0.239,0.653c0.251,0.232,0.551,0.316,0.67,0.187
					c0.102-0.11,0.037-0.339-0.139-0.547l1.089-1.051c0.756,0.678,1.627,1.247,2.596,1.678l-1.27,4.346
					c-0.76-0.163-1.418-0.017-1.56,0.385c-0.169,0.476,0.446,1.128,1.373,1.457c0.927,0.329,1.816,0.211,1.985-0.265
					c0.144-0.406-0.284-0.94-0.988-1.292l1.748-4.158c0.952,0.277,1.915,0.406,2.864,0.398l0.14,1.449
					c-0.266,0.046-0.459,0.177-0.454,0.325c0.007,0.175,0.289,0.306,0.631,0.293c0.341-0.013,0.613-0.166,0.606-0.341
					c-0.006-0.149-0.213-0.266-0.485-0.289l0.026-1.452c1.054-0.058,2.084-0.285,3.054-0.661l2.145,3.915
					c-0.653,0.422-1.015,0.99-0.831,1.375c0.217,0.456,1.113,0.482,2.001,0.059c0.888-0.423,1.433-1.135,1.216-1.591
					c-0.185-0.389-0.865-0.464-1.613-0.215l-1.682-4.121c0.849-0.47,1.631-1.063,2.318-1.766l1.091,0.899
					c-0.156,0.22-0.2,0.45-0.091,0.55c0.129,0.119,0.421,0.012,0.653-0.239c0.232-0.251,0.316-0.551,0.187-0.67
					c-0.11-0.102-0.339-0.038-0.547,0.139l-0.98-1.015c0.687-0.772,1.262-1.662,1.692-2.654l4.257,1.243
					c-0.163,0.76-0.017,1.418,0.385,1.561c0.476,0.169,1.128-0.446,1.457-1.374c0.329-0.927,0.21-1.816-0.265-1.985
					c-0.406-0.144-0.94,0.284-1.292,0.988l-4.084-1.717c0.271-0.961,0.392-1.934,0.374-2.89l1.404-0.135
					c0.045,0.266,0.176,0.46,0.324,0.454c0.175-0.007,0.306-0.289,0.293-0.631c-0.013-0.341-0.166-0.613-0.341-0.606
					c-0.149,0.006-0.266,0.213-0.289,0.485l-1.41-0.025c-0.07-1.068-0.312-2.11-0.707-3.089l3.904-2.139
					c0.423,0.664,0.998,1.035,1.387,0.85c0.456-0.217,0.482-1.113,0.059-2.001c-0.423-0.888-1.135-1.433-1.591-1.216
					c-0.385,0.183-0.462,0.852-0.222,1.592l-4.134,1.687c-0.476-0.832-1.071-1.597-1.773-2.267l0.924-1.121
					c0.222,0.16,0.455,0.205,0.557,0.096c0.119-0.129,0.012-0.421-0.239-0.653c-0.251-0.232-0.551-0.316-0.67-0.187
					c-0.101,0.109-0.038,0.334,0.134,0.541l-1.048,1.012c-0.777-0.676-1.669-1.241-2.663-1.66l1.265-4.33
					c0.769,0.171,1.438,0.026,1.582-0.38c0.169-0.475-0.446-1.128-1.373-1.457C64.655,243.109,63.766,243.227,63.598,243.703z"/>
				<path style="fill:none;stroke:#92CDFE;stroke-miterlimit:10;" d="M265.38,409.067c-0.153,0.431,0.296,0.997,1.039,1.375
					l-1.882,4.477c-1.009-0.272-2.028-0.391-3.031-0.367l-0.156-1.614c0.289-0.047,0.501-0.189,0.495-0.35
					c-0.007-0.188-0.31-0.328-0.677-0.314c-0.366,0.014-0.657,0.178-0.65,0.366c0.006,0.159,0.224,0.282,0.512,0.309l-0.029,1.626
					c-1.121,0.08-2.215,0.336-3.244,0.75l-2.357-4.302c0.713-0.454,1.11-1.071,0.911-1.488c-0.233-0.489-1.194-0.517-2.146-0.063
					c-0.953,0.454-1.537,1.217-1.304,1.706c0.197,0.413,0.914,0.496,1.707,0.238l1.859,4.555c-0.875,0.501-1.681,1.126-2.389,1.861
					l-1.288-1.062c0.171-0.238,0.22-0.488,0.103-0.597c-0.138-0.128-0.452-0.013-0.701,0.256c-0.249,0.269-0.339,0.591-0.201,0.718
					c0.117,0.108,0.358,0.041,0.581-0.144l1.161,1.204c-0.715,0.816-1.314,1.753-1.765,2.794l-4.74-1.384
					c0.183-0.825,0.028-1.542-0.408-1.696c-0.51-0.181-1.21,0.478-1.563,1.473c-0.353,0.995-0.226,1.947,0.284,2.129
					c0.431,0.153,0.997-0.296,1.375-1.039l4.556,1.915c-0.278,0.999-0.407,2.008-0.394,3.003l-1.662,0.16
					c-0.047-0.289-0.189-0.501-0.35-0.495c-0.188,0.007-0.328,0.31-0.314,0.676c0.014,0.366,0.178,0.657,0.366,0.65
					c0.159-0.006,0.283-0.224,0.309-0.512l1.669,0.03c0.067,1.107,0.309,2.187,0.703,3.207l-4.315,2.364
					c-0.453-0.7-1.062-1.088-1.475-0.892c-0.489,0.233-0.517,1.194-0.063,2.147c0.454,0.953,1.217,1.537,1.706,1.304
					c0.417-0.198,0.497-0.928,0.23-1.729l4.542-1.853c0.495,0.894,1.117,1.718,1.853,2.444l-1.036,1.257
					c-0.236-0.167-0.482-0.215-0.59-0.098c-0.127,0.138-0.013,0.452,0.256,0.7c0.269,0.249,0.591,0.339,0.718,0.201
					c0.109-0.118,0.04-0.363-0.149-0.587l1.168-1.127c0.811,0.727,1.745,1.338,2.784,1.8l-1.362,4.661
					c-0.815-0.175-1.52-0.019-1.673,0.413c-0.181,0.51,0.478,1.21,1.473,1.563s1.947,0.226,2.128-0.284
					c0.155-0.435-0.304-1.008-1.06-1.386l1.875-4.459c1.021,0.297,2.054,0.436,3.072,0.427l0.15,1.554
					c-0.285,0.049-0.493,0.189-0.487,0.348c0.007,0.188,0.31,0.328,0.676,0.314c0.366-0.014,0.657-0.178,0.65-0.366
					c-0.006-0.16-0.228-0.285-0.52-0.31l0.028-1.557c1.13-0.062,2.235-0.306,3.275-0.708l2.301,4.199
					c-0.7,0.453-1.088,1.062-0.892,1.475c0.233,0.489,1.194,0.517,2.146,0.063c0.953-0.454,1.537-1.217,1.304-1.706
					c-0.198-0.417-0.928-0.497-1.729-0.231l-1.803-4.42c0.911-0.504,1.749-1.14,2.485-1.894l1.17,0.964
					c-0.167,0.236-0.215,0.482-0.098,0.59c0.138,0.128,0.452,0.013,0.7-0.256c0.249-0.269,0.339-0.591,0.201-0.718
					c-0.118-0.109-0.363-0.04-0.587,0.149l-1.051-1.089c0.737-0.828,1.353-1.782,1.815-2.846l4.565,1.333
					c-0.175,0.815-0.019,1.521,0.413,1.674c0.51,0.181,1.21-0.478,1.563-1.473c0.353-0.994,0.226-1.947-0.284-2.129
					c-0.435-0.154-1.008,0.304-1.386,1.06l-4.38-1.841c0.291-1.031,0.421-2.073,0.401-3.099l1.506-0.145
					c0.049,0.285,0.189,0.493,0.348,0.487c0.188-0.007,0.328-0.31,0.314-0.676c-0.014-0.366-0.178-0.657-0.366-0.65
					c-0.16,0.006-0.285,0.228-0.31,0.521l-1.512-0.027c-0.075-1.146-0.335-2.263-0.758-3.313l4.187-2.294
					c0.454,0.713,1.071,1.11,1.488,0.911c0.489-0.233,0.517-1.194,0.063-2.146c-0.454-0.953-1.217-1.537-1.706-1.304
					c-0.413,0.197-0.496,0.914-0.238,1.707l-4.433,1.809c-0.51-0.892-1.149-1.712-1.902-2.431l0.991-1.202
					c0.238,0.171,0.488,0.22,0.597,0.103c0.128-0.138,0.013-0.452-0.256-0.7c-0.269-0.249-0.591-0.339-0.718-0.201
					c-0.108,0.117-0.041,0.358,0.144,0.581l-1.124,1.085c-0.833-0.725-1.79-1.331-2.856-1.78l1.356-4.643
					c0.825,0.183,1.542,0.028,1.696-0.408c0.181-0.51-0.478-1.21-1.473-1.563C266.514,408.43,265.561,408.557,265.38,409.067z"/>
				<path style="fill:none;stroke:#92CDFE;stroke-miterlimit:10;" d="M459.924,385.228c-0.101,0.285,0.196,0.66,0.688,0.91
					l-1.246,2.963c-0.668-0.18-1.342-0.259-2.006-0.243l-0.103-1.068c0.191-0.031,0.332-0.125,0.327-0.231
					c-0.005-0.124-0.205-0.217-0.448-0.208c-0.242,0.01-0.435,0.118-0.43,0.242c0.004,0.105,0.148,0.187,0.339,0.204l-0.019,1.076
					c-0.742,0.053-1.466,0.222-2.147,0.497l-1.56-2.847c0.472-0.3,0.735-0.709,0.603-0.985c-0.154-0.323-0.79-0.342-1.421-0.042
					c-0.631,0.3-1.017,0.806-0.863,1.129c0.13,0.273,0.605,0.328,1.13,0.157l1.23,3.015c-0.579,0.332-1.112,0.745-1.581,1.232
					l-0.853-0.703c0.113-0.158,0.146-0.323,0.068-0.395c-0.091-0.084-0.299-0.008-0.464,0.17c-0.165,0.178-0.224,0.391-0.133,0.475
					c0.077,0.071,0.237,0.027,0.384-0.095l0.769,0.797c-0.473,0.54-0.87,1.16-1.168,1.849l-3.137-0.916
					c0.121-0.546,0.018-1.021-0.27-1.123c-0.337-0.12-0.801,0.317-1.034,0.975c-0.234,0.658-0.149,1.289,0.188,1.409
					c0.285,0.101,0.66-0.196,0.91-0.688l3.016,1.268c-0.184,0.661-0.27,1.329-0.261,1.987l-1.1,0.106
					c-0.031-0.191-0.125-0.331-0.231-0.327c-0.124,0.005-0.217,0.205-0.208,0.448c0.009,0.242,0.118,0.435,0.242,0.43
					c0.105-0.004,0.187-0.148,0.204-0.339l1.105,0.02c0.045,0.732,0.205,1.448,0.465,2.122l-2.856,1.565
					c-0.3-0.463-0.703-0.72-0.976-0.59c-0.323,0.154-0.342,0.79-0.042,1.421c0.3,0.631,0.806,1.017,1.129,0.863
					c0.276-0.131,0.329-0.614,0.153-1.145l3.006-1.227c0.328,0.591,0.739,1.137,1.227,1.617l-0.686,0.832
					c-0.156-0.111-0.319-0.142-0.391-0.065c-0.084,0.091-0.009,0.299,0.17,0.464c0.178,0.165,0.391,0.224,0.475,0.133
					c0.072-0.078,0.027-0.24-0.099-0.388l0.773-0.746c0.537,0.481,1.155,0.885,1.843,1.191l-0.901,3.085
					c-0.54-0.116-1.006-0.012-1.108,0.273c-0.12,0.337,0.317,0.8,0.975,1.034c0.658,0.234,1.289,0.149,1.409-0.188
					c0.102-0.288-0.201-0.667-0.701-0.917l1.241-2.951c0.676,0.197,1.359,0.288,2.033,0.283l0.099,1.029
					c-0.189,0.032-0.326,0.125-0.322,0.23c0.005,0.124,0.205,0.217,0.448,0.208c0.242-0.009,0.435-0.118,0.43-0.242
					c-0.004-0.106-0.151-0.189-0.344-0.205l0.018-1.03c0.748-0.041,1.479-0.202,2.168-0.469l1.523,2.779
					c-0.463,0.3-0.72,0.703-0.59,0.976c0.154,0.323,0.79,0.342,1.421,0.042c0.631-0.3,1.017-0.806,0.863-1.129
					c-0.131-0.276-0.614-0.329-1.145-0.153l-1.194-2.925c0.603-0.333,1.158-0.755,1.645-1.254l0.775,0.638
					c-0.111,0.156-0.142,0.319-0.065,0.391c0.091,0.085,0.299,0.009,0.463-0.169c0.165-0.178,0.224-0.391,0.133-0.475
					c-0.078-0.072-0.24-0.027-0.389,0.099l-0.695-0.72c0.488-0.548,0.896-1.18,1.201-1.883l3.021,0.883
					c-0.116,0.539-0.012,1.006,0.273,1.108c0.338,0.12,0.801-0.317,1.034-0.975c0.234-0.658,0.149-1.289-0.188-1.409
					c-0.288-0.102-0.667,0.201-0.917,0.702l-2.899-1.219c0.192-0.682,0.278-1.372,0.265-2.051l0.997-0.096
					c0.032,0.189,0.125,0.326,0.23,0.322c0.124-0.005,0.217-0.205,0.208-0.448c-0.009-0.242-0.118-0.435-0.242-0.43
					c-0.106,0.004-0.189,0.151-0.205,0.344l-1.001-0.018c-0.049-0.758-0.221-1.498-0.502-2.193l2.771-1.518
					c0.301,0.472,0.709,0.734,0.985,0.603c0.323-0.154,0.342-0.79,0.042-1.421c-0.3-0.631-0.806-1.017-1.129-0.863
					c-0.273,0.13-0.328,0.605-0.157,1.13l-2.934,1.197c-0.338-0.59-0.76-1.133-1.258-1.609l0.656-0.795
					c0.158,0.113,0.323,0.146,0.395,0.068c0.085-0.091,0.009-0.299-0.17-0.464c-0.178-0.165-0.391-0.224-0.475-0.133
					c-0.071,0.077-0.027,0.237,0.095,0.384l-0.744,0.718c-0.552-0.479-1.185-0.881-1.89-1.178l0.898-3.073
					c0.546,0.121,1.021,0.018,1.123-0.27c0.12-0.337-0.317-0.801-0.975-1.034C460.674,384.807,460.043,384.891,459.924,385.228z"/>
			</g>
			<g>
				<g>
					<g>
						<rect x="63.438" y="86.292" style="fill:#FFFFFF;stroke:#92CDFE;stroke-miterlimit:10;" width="361.324" height="316.675"/>
						<rect x="79.355" y="101.765" style="fill:#E4F2FF;stroke:#92CDFE;stroke-miterlimit:10;" width="329.489" height="285.729"/>
					</g>
					<g>
						<g>
							<g>
								<polygon style="fill:#E4F2FF;stroke:#92CDFE;stroke-miterlimit:10;" points="211.961,387.494 209.6,305.023 
									204.824,305.023 202.811,305.023 198.035,305.023 195.674,387.494 								"/>
								<path style="fill:#E4F2FF;stroke:#92CDFE;stroke-miterlimit:10;" d="M212.061,321.472h-15.259
									c-2.806,0-5.081-1.993-5.081-4.452l0,0c0-2.459,2.275-4.452,5.081-4.452h15.259c2.806,0,5.081,1.993,5.081,4.452l0,0
									C217.141,319.479,214.867,321.472,212.061,321.472z"/>
							</g>
							<path style="fill:#E4F2FF;stroke:#92CDFE;stroke-miterlimit:10;" d="M277.974,306.197H128.35c-4.766,0-8.63-3.864-8.63-8.629
								v0c0-4.766,3.864-8.63,8.63-8.63h149.624c4.766,0,8.629,3.864,8.629,8.63v0C286.604,302.333,282.74,306.197,277.974,306.197z
								"/>
						</g>
						<g>
							<g>
								<g>
									<path style="fill:#92CDFE;stroke:#92CDFE;stroke-miterlimit:10;" d="M174.049,288.326h-63.98
										c-2.801,0-5.071-2.27-5.071-5.071l0,0c0-2.801,2.271-5.071,5.071-5.071h63.98c2.801,0,5.071,2.27,5.071,5.071l0,0
										C179.12,286.055,176.85,288.326,174.049,288.326z"/>
									<g>
										
											<line style="fill:none;stroke:#92CDFE;stroke-width:8;stroke-linecap:round;stroke-miterlimit:10;" x1="114.504" y1="282.857" x2="95.363" y2="204.363"/>
										
											<line style="fill:none;stroke:#92CDFE;stroke-width:8;stroke-linecap:round;stroke-miterlimit:10;" x1="168.623" y1="282.857" x2="187.764" y2="204.363"/>
										<path style="fill:none;stroke:#92CDFE;stroke-width:5;stroke-linecap:round;stroke-miterlimit:10;" d="M179.3,239.087
											c-8.019,8.282-21.929,13.76-37.746,13.76c-14.968,0-28.228-4.905-36.404-12.45"/>
									</g>
								</g>
								
									<line style="fill:none;stroke:#92CDFE;stroke-width:8;stroke-linecap:round;stroke-miterlimit:10;" x1="114.504" y1="283.632" x2="114.504" y2="357.975"/>
							</g>
							<g>
								<g>
									<path style="fill:#92CDFE;" d="M233.078,288.326h63.98c2.801,0,5.071-2.27,5.071-5.071l0,0c0-2.801-2.27-5.071-5.071-5.071
										h-63.98c-2.801,0-5.071,2.27-5.071,5.071l0,0C228.006,286.055,230.277,288.326,233.078,288.326z"/>
									<g>
										
											<line style="fill:none;stroke:#92CDFE;stroke-width:8;stroke-linecap:round;stroke-miterlimit:10;" x1="292.623" y1="282.857" x2="311.764" y2="204.363"/>
										
											<line style="fill:none;stroke:#92CDFE;stroke-width:8;stroke-linecap:round;stroke-miterlimit:10;" x1="238.504" y1="282.857" x2="219.363" y2="204.363"/>
										<path style="fill:none;stroke:#92CDFE;stroke-width:5;stroke-linecap:round;stroke-miterlimit:10;" d="M227.827,239.087
											c8.019,8.282,21.929,13.76,37.745,13.76c14.968,0,28.228-4.905,36.404-12.45"/>
									</g>
								</g>
								
									<line style="fill:none;stroke:#92CDFE;stroke-width:8;stroke-linecap:round;stroke-miterlimit:10;" x1="292.623" y1="283.632" x2="292.623" y2="357.975"/>
							</g>
						</g>
					</g>
					<g>
						<g>
							<g>
								<line style="fill:none;stroke:#FFFFFF;stroke-miterlimit:10;" x1="205.242" y1="210.146" x2="118.945" y2="148.664"/>
								<line style="fill:none;stroke:#FFFFFF;stroke-miterlimit:10;" x1="184.319" y1="213.375" x2="98.022" y2="151.893"/>
								<line style="fill:none;stroke:#FFFFFF;stroke-miterlimit:10;" x1="205.242" y1="243.237" x2="118.945" y2="181.755"/>
							</g>
							<line style="fill:none;stroke:#FFFFFF;stroke-miterlimit:10;" x1="149.176" y1="313.654" x2="103.156" y2="283.271"/>
						</g>
						<g>
							<line style="fill:none;stroke:#FFFFFF;stroke-miterlimit:10;" x1="328.438" y1="213.254" x2="242.141" y2="151.772"/>
							<line style="fill:none;stroke:#FFFFFF;stroke-miterlimit:10;" x1="349.362" y1="243.117" x2="263.065" y2="181.635"/>
						</g>
					</g>
				</g>
				<g>
					<g>
						<polygon style="fill:#92CDFE;" points="436.358,101.765 413.381,65.489 152.838,65.489 152.838,65.502 74.48,65.502 
							51.503,101.779 52.206,104.353 152.838,105.213 161.183,104.081 241.642,101.473 332.744,104.133 338.25,103.62 
							435.655,104.339 						"/>
						<g>
							<path style="fill:#92CDFE;" d="M381.304,103.944c0,15.224,12.341,27.565,27.565,27.565c15.224,0,27.565-12.341,27.565-27.565
								c0-0.734-0.037-1.46-0.094-2.179h-54.942C381.341,102.484,381.304,103.21,381.304,103.944z"/>
							<path style="fill:#92CDFE;" d="M271.339,103.944c0,15.224,12.341,27.565,27.565,27.565c15.224,0,27.565-12.341,27.565-27.565
								c0-0.734-0.037-1.46-0.094-2.179h-54.942C271.376,102.484,271.339,103.21,271.339,103.944z"/>
							<path style="fill:#92CDFE;" d="M161.375,103.944c0,15.224,12.341,27.565,27.565,27.565c15.224,0,27.565-12.341,27.565-27.565
								c0-0.734-0.037-1.46-0.094-2.179h-54.942C161.412,102.484,161.375,103.21,161.375,103.944z"/>
							<path style="fill:#92CDFE;" d="M51.41,103.944c0,15.224,12.341,27.565,27.565,27.565s27.565-12.341,27.565-27.565
								c0-0.734-0.037-1.46-0.094-2.179H51.504C51.447,102.484,51.41,103.21,51.41,103.944z"/>
							<path style="fill:#FFFFFF;" d="M106.392,103.944c0,15.224,12.341,27.565,27.565,27.565c15.224,0,27.565-12.341,27.565-27.565
								c0-0.734-0.037-1.46-0.094-2.179h-54.942C106.43,102.484,106.392,103.21,106.392,103.944z"/>
							<path style="fill:#FFFFFF;" d="M216.357,103.944c0,15.224,12.341,27.565,27.565,27.565c15.224,0,27.565-12.341,27.565-27.565
								c0-0.734-0.037-1.46-0.094-2.179h-54.942C216.394,102.484,216.357,103.21,216.357,103.944z"/>
							<path style="fill:#FFFFFF;" d="M326.322,103.944c0,15.224,12.341,27.565,27.565,27.565s27.565-12.341,27.565-27.565
								c0-0.734-0.037-1.46-0.094-2.179h-54.942C326.359,102.484,326.322,103.21,326.322,103.944z"/>
						</g>
						<g>
							<polygon style="fill:#FFFFFF;" points="161.507,101.982 165.628,65.489 152.838,65.489 152.838,65.504 114.592,65.504 
								106.446,101.765 112.182,105.213 156.133,105.213 							"/>
							<polygon style="fill:#FFFFFF;" points="216.451,101.765 220.748,105.213 221.638,105.471 241.642,104.763 264.042,105.477 
								271.393,101.765 268.955,65.489 218.993,65.489 							"/>
							<polygon style="fill:#FFFFFF;" points="381.417,101.982 373.219,65.489 321.689,65.489 326.356,101.765 335.677,107.368 
								338.25,107.106 372.434,107.382 							"/>
						</g>
					</g>
					<g>
						<path style="fill:none;stroke:#92CDFE;stroke-linecap:round;stroke-linejoin:round;stroke-miterlimit:10;" d="
							M436.342,101.824l0.016-0.059l-22.978-36.277h-40.162h-51.53h-52.734h-49.962h-53.365h-12.791v0.014H74.48l-22.968,36.262
							h-0.008c0,0.004,0,0.009-0.001,0.014l0,0.001l0,0.002c-0.056,0.715-0.093,1.435-0.093,2.163
							c0,15.224,12.341,27.565,27.565,27.565c14.579,0,26.506-11.32,27.491-25.649c0.985,14.329,12.912,25.649,27.491,25.649
							c14.579,0,26.506-11.32,27.491-25.649c0.985,14.329,12.912,25.649,27.491,25.649s26.506-11.32,27.491-25.649
							c0.985,14.329,12.912,25.649,27.491,25.649c14.579,0,26.506-11.32,27.491-25.648c0.985,14.328,12.912,25.648,27.491,25.648
							c14.579,0,26.506-11.32,27.491-25.649c0.985,14.329,12.912,25.649,27.491,25.649s26.506-11.32,27.491-25.649
							c0.985,14.329,12.912,25.649,27.491,25.649c15.224,0,27.565-12.341,27.565-27.565
							C436.433,103.23,436.396,102.525,436.342,101.824z"/>
						<g>
							
								<line style="fill:none;stroke:#92CDFE;stroke-linecap:round;stroke-miterlimit:10;" x1="106.446" y1="106.224" x2="106.446" y2="102.041"/>
							
								<line style="fill:none;stroke:#92CDFE;stroke-linecap:round;stroke-linejoin:round;stroke-miterlimit:10;" x1="161.478" y1="101.779" x2="161.478" y2="108.588"/>
							
								<line style="fill:none;stroke:#92CDFE;stroke-linecap:round;stroke-linejoin:round;stroke-miterlimit:10;" x1="216.357" y1="106.729" x2="216.357" y2="102.036"/>
							
								<line style="fill:none;stroke:#92CDFE;stroke-linecap:round;stroke-linejoin:round;stroke-miterlimit:10;" x1="271.393" y1="106.228" x2="271.393" y2="102.035"/>
							
								<line style="fill:none;stroke:#92CDFE;stroke-linecap:round;stroke-linejoin:round;stroke-miterlimit:10;" x1="326.4" y1="106.348" x2="326.4" y2="101.832"/>
							
								<line style="fill:none;stroke:#92CDFE;stroke-linecap:round;stroke-linejoin:round;stroke-miterlimit:10;" x1="381.417" y1="106.453" x2="381.417" y2="101.779"/>
						</g>
						
							<line style="fill:none;stroke:#6FBBEF;stroke-linecap:round;stroke-miterlimit:10;" x1="51.503" y1="101.779" x2="436.433" y2="101.779"/>
					</g>
				</g>
			</g>
			<g>
				<g>
					<g>
						<g>
							<path style="fill:none;stroke:#92CDFE;stroke-miterlimit:10;" d="M374.868,454.357c-6.224-6.059-26.562-25.179-16.628-41.109
								c12.536-20.102,35.043-8.499,30.14-32.313c-4.903-23.815-8.59-36.267,15.277-46.294c23.868-10.027,14.697-19.58,16.72-33.259
								c2.624-17.734,21.924-31.196,43.398-23.836c16.565,5.678,13.408,38.692,2.1,48.3c-11.309,9.608,12.737,17.952,2.915,40.912
								c-9.822,22.96-34.482,14.962-32.712,32.854c0.435,4.401,7.815,25.054,3.009,37.022c-2.409,5.999-7.539,12.218-17.514,17.373"
								/>
							<g>
								<g>
									<g>
										<path style="fill:#92CDFE;" d="M384.437,454.197c1.962-4.528,3.932-9.053,5.903-13.577
											c4.873-11.182,9.763-22.356,14.671-33.522c6.239-14.193,12.506-28.373,18.824-42.531
											c6.096-13.662,12.23-27.308,18.49-40.896c4.409-9.573,8.8-19.178,13.637-28.546c0.368-0.713,0.741-1.424,1.12-2.131
											c0.228-0.425-0.419-0.805-0.648-0.379c-4.613,8.61-8.67,17.534-12.776,26.392c-6.175,13.32-12.208,26.706-18.203,40.107
											c-6.386,14.277-12.717,28.578-19.018,42.893c-5.141,11.679-10.26,23.368-15.362,35.064
											c-1.628,3.732-3.253,7.464-4.876,11.198c-0.764,1.757-1.675,3.513-2.311,5.321c-0.027,0.077-0.066,0.152-0.098,0.227
											C383.599,454.257,384.245,454.639,384.437,454.197L384.437,454.197z"/>
									</g>
								</g>
								<g>
									<g>
										<g>
											<path style="fill:#92CDFE;" d="M428.731,353.455c9.453-0.523,18.906-1.046,28.36-1.569
												c1.344-0.074,2.687-0.149,4.03-0.223c0.48-0.027,0.483-0.777,0-0.75c-9.453,0.523-18.906,1.046-28.36,1.569
												c-1.344,0.074-2.687,0.149-4.03,0.223C428.251,352.731,428.248,353.482,428.731,353.455L428.731,353.455z"/>
										</g>
									</g>
									<g>
										<g>
											<path style="fill:#92CDFE;" d="M396.026,427.227c10.523-1.184,21.046-2.367,31.569-3.551
												c1.491-0.168,2.982-0.335,4.472-0.503c0.474-0.053,0.48-0.804,0-0.75c-10.523,1.184-21.046,2.367-31.569,3.551
												c-1.491,0.168-2.982,0.335-4.472,0.503C395.552,426.531,395.547,427.281,396.026,427.227L396.026,427.227z"/>
										</g>
									</g>
								</g>
								<g>
									<g>
										<path style="fill:#92CDFE;" d="M393.264,346.381c2.139,4.802,4.278,9.604,6.418,14.405
											c3.414,7.664,6.829,15.329,10.243,22.993c0.79,1.774,1.581,3.548,2.371,5.321c0.196,0.44,0.842,0.059,0.648-0.379
											c-2.139-4.802-4.278-9.604-6.418-14.405c-3.414-7.664-6.829-15.329-10.243-22.993c-0.79-1.774-1.58-3.548-2.371-5.321
											C393.716,345.562,393.07,345.943,393.264,346.381L393.264,346.381z"/>
									</g>
								</g>
							</g>
							<path style="fill:#92CDFE;" d="M439.725,297.464c-1.584,2.327-4.342,3.21-6.16,1.973c-1.818-1.237-2.008-4.127-0.424-6.454
								c1.584-2.327,4.342-3.21,6.16-1.973C441.119,292.247,441.309,295.137,439.725,297.464z"/>
							<path style="fill:#92CDFE;" d="M440.887,310.044c0,1.23-0.997,2.227-2.227,2.227s-2.227-0.997-2.227-2.227
								c0-1.23,0.997-2.227,2.227-2.227S440.887,308.815,440.887,310.044z"/>
							<path style="fill:#92CDFE;" d="M457.033,367.482c0,2.39-1.937,4.327-4.327,4.327c-2.39,0-4.327-1.937-4.327-4.327
								c0-2.39,1.937-4.327,4.327-4.327C455.096,363.155,457.033,365.092,457.033,367.482z"/>
						</g>
					</g>
					<g>
						<g>
							<g>
								<path style="fill:#FFFFFF;stroke:#92CDFE;stroke-miterlimit:10;" d="M82.114,454.197
									c-6.002,0.219-30.259,5.548-29.862-14.192c0.202-10.081-2.736-9.715-8.645-13.666c-5.908-3.951-5.765-6.478-5.247-12.119
									c0.518-5.642-5.105-2.909-8.851-10.328c-4.481-8.875,0.914-15.496,9.622-17.09c8.707-1.594,8.454,7.799,11.915,10.598
									c3.461,2.8,8.246-3.22,14.895,4.942c4.341,5.329-2.399,17.486,3.986,16.353"/>
							</g>
							<g>
								<g>
									<g>
										<path style="fill:#92CDFE;" d="M70.696,436.621c-8.508-11.495-17.493-22.635-26.88-33.423
											c-0.635-0.73-1.692,0.335-1.061,1.061c9.303,10.692,18.214,21.727,26.645,33.12
											C69.969,438.146,71.271,437.398,70.696,436.621L70.696,436.621z"/>
									</g>
								</g>
								<g>
									<g>
										<path style="fill:#92CDFE;" d="M56.241,402.679c-0.314,4.698-0.628,9.395-0.942,14.093
											c-0.044,0.663-0.089,1.327-0.133,1.99c0.25-0.25,0.5-0.5,0.75-0.75c-4.31,0.357-8.62,0.714-12.93,1.071
											c-0.955,0.079-0.964,1.58,0,1.5c4.31-0.357,8.62-0.714,12.93-1.071c0.425-0.035,0.721-0.316,0.75-0.75
											c0.314-4.698,0.628-9.395,0.942-14.093c0.044-0.663,0.089-1.327,0.133-1.99C57.806,401.716,56.306,401.72,56.241,402.679
											L56.241,402.679z"/>
									</g>
								</g>
							</g>
						</g>
						<g>
							<g>
								<path style="fill:#FFFFFF;stroke:#92CDFE;stroke-miterlimit:10;" d="M43.415,337.456c-10.808-8.804-13.392-36,2.007-44.257
									c19.04-10.21,38.972,5.592,41.479,21.841c1.934,12.534-6.832,21.287,15.981,30.475
									c22.813,9.188,19.288,20.598,14.602,42.419c-4.686,21.822,10.73,13.821,22.712,32.241
									c9.494,14.596-3.848,29.484-9.797,35.036l-46.662-0.227c-1.511-0.891-2.96-1.885-4.322-2.998
									c-15.069-12.317-9.109-31.782-7.519-46.936c2.17-20.682-21.878-9.066-31.266-30.104
									C31.241,353.906,54.224,346.26,43.415,337.456z"/>
							</g>
							<g>
								<g>
									<g>
										<path style="fill:#92CDFE;" d="M122.209,454.512c-1.871-4.139-3.749-8.275-5.629-12.41
											c-4.648-10.225-9.312-20.443-13.993-30.653c-5.972-13.025-11.971-26.037-18.017-39.028
											c-5.837-12.541-11.71-25.066-17.701-37.534c-4.21-8.763-8.405-17.556-13.014-26.118c-0.354-0.658-0.713-1.314-1.078-1.967
											c-0.471-0.843-1.767-0.087-1.295,0.757c4.394,7.865,8.271,16.035,12.192,24.142c5.891,12.182,11.649,24.428,17.37,36.69
											c6.114,13.103,12.176,26.23,18.209,39.37c4.921,10.719,9.823,21.446,14.707,32.182c1.563,3.436,3.125,6.874,4.684,10.312
											c0.716,1.58,1.328,3.288,2.176,4.804c0.037,0.067,0.064,0.142,0.096,0.211
											C121.311,456.147,122.604,455.385,122.209,454.512L122.209,454.512z"/>
									</g>
								</g>
								<g>
									<g>
										<g>
											<path style="fill:#92CDFE;" d="M78.917,362.035c-9.049-0.48-18.097-0.96-27.146-1.44
												c-1.271-0.067-2.541-0.135-3.812-0.202c-0.482-0.026-0.481,0.724,0,0.75c9.049,0.48,18.097,0.96,27.146,1.44
												c1.271,0.067,2.541,0.135,3.812,0.202C79.399,362.811,79.398,362.061,78.917,362.035L78.917,362.035z"/>
										</g>
									</g>
									<g>
										<g>
											<path style="fill:#92CDFE;" d="M110.175,429.633c-10.162-1.096-20.325-2.192-30.487-3.288
												c-1.443-0.156-2.885-0.311-4.328-0.467c-0.479-0.052-0.476,0.699,0,0.75c10.162,1.096,20.325,2.192,30.487,3.288
												c1.443,0.156,2.885,0.311,4.328,0.467C110.655,430.435,110.651,429.685,110.175,429.633L110.175,429.633z"/>
										</g>
									</g>
								</g>
								<g>
									<g>
										<path style="fill:#92CDFE;" d="M112.182,355.909c-2.047,4.405-4.094,8.81-6.141,13.215
											c-3.265,7.025-6.529,14.051-9.794,21.076c-0.752,1.618-1.504,3.236-2.255,4.853c-0.202,0.435,0.444,0.816,0.648,0.379
											c2.047-4.405,4.094-8.81,6.141-13.216c3.264-7.025,6.529-14.051,9.794-21.076c0.752-1.618,1.504-3.235,2.255-4.853
											C113.032,355.853,112.385,355.471,112.182,355.909L112.182,355.909z"/>
									</g>
								</g>
							</g>
							<path style="fill:#92CDFE;" d="M68.409,311.449c1.514,2.132,4.15,2.942,5.887,1.808c1.737-1.134,1.919-3.782,0.405-5.914
								c-1.514-2.132-4.15-2.941-5.887-1.808C67.076,306.669,66.895,309.317,68.409,311.449z"/>
							<path style="fill:#FFFFFF;" d="M67.298,322.977c0,1.127,0.953,2.04,2.128,2.04s2.128-0.913,2.128-2.04
								c0-1.127-0.953-2.041-2.128-2.041S67.298,321.85,67.298,322.977z"/>
							<ellipse style="fill:#92CDFE;" cx="56.002" cy="375.607" rx="4.136" ry="3.965"/>
						</g>
					</g>
				</g>
				<g>
					<path style="fill:#92CDFE;" d="M141.787,454.483c0.123,0.271-14.821-9.124-14.433-23.519
						c0.388-14.395,16.324-9.106,19.499-15.754c3.175-6.648-3.44-12.717,2.044-20.474c6.793-9.608,14.055,1.36,14.944-11.652
						c0.772-11.299,11.699-5.876,16.035-12.647c4.336-6.772,13.077-10.987,20.159-4.023c7.522,7.397,4.065,15.717-0.532,22.55
						c-4.598,6.833-0.259,9.491-2.747,17.027c-2.488,7.536-16.759,7.472-16.88,15.235c-0.121,7.763,5.648,17.937-0.862,25.23
						c-6.51,7.293-14.018,9.081-14.018,9.081L141.787,454.483z"/>
					<g>
						<g>
							<g>
								<path style="fill:#FFFFFF;" d="M148.166,453.784c3.857-7.862,7.413-15.876,11.088-23.824
									c4.908-10.613,9.842-21.22,15.079-31.676c2.342-4.677,4.729-9.343,7.372-13.859c0.244-0.417-0.404-0.795-0.648-0.379
									c-5.156,8.81-9.532,18.096-13.917,27.305c-4.854,10.192-9.555,20.456-14.289,30.704c-1.753,3.794-3.492,7.597-5.333,11.35
									C147.307,453.837,147.953,454.217,148.166,453.784L148.166,453.784z"/>
							</g>
						</g>
						<g>
							<g>
								<path style="fill:#FFFFFF;" d="M185.371,403.091c-4.301,0.446-8.603,0.892-12.904,1.338
									c-0.619,0.064-1.238,0.128-1.858,0.193c-0.475,0.049-0.48,0.8,0,0.75c4.301-0.446,8.603-0.892,12.904-1.338
									c0.619-0.064,1.238-0.128,1.858-0.193C185.846,403.792,185.851,403.041,185.371,403.091L185.371,403.091z"/>
							</g>
						</g>
						
							<line style="fill:none;stroke:#FFFFFF;stroke-width:0.75;stroke-linecap:round;stroke-miterlimit:10;" x1="153.069" y1="396.978" x2="162.676" y2="421.706"/>
					</g>
					<g>
						<path style="fill:#FFFFFF;" d="M179.873,396.118c0,1.139,1.065,2.062,2.379,2.062c1.314,0,2.379-0.923,2.379-2.062
							c0-1.138-1.065-2.062-2.379-2.062C180.938,394.056,179.873,394.979,179.873,396.118z"/>
						<path style="fill:#FFFFFF;" d="M171.291,384.274c0.657,1.138,2.112,1.527,3.25,0.87c1.138-0.657,1.528-2.112,0.871-3.249
							c-0.657-1.138-2.112-1.528-3.249-0.871C171.024,381.682,170.634,383.136,171.291,384.274z"/>
						<path style="fill:#FFFFFF;" d="M164.995,431.562c0,1.419,1.327,2.569,2.965,2.569c1.637,0,2.965-1.15,2.965-2.569
							c0-1.419-1.327-2.569-2.965-2.569C166.322,428.993,164.995,430.143,164.995,431.562z"/>
						<path style="fill:#FFFFFF;" d="M180.324,377.811c0,0.584,0.473,1.057,1.057,1.057c0.584,0,1.057-0.473,1.057-1.057
							c0-0.584-0.473-1.057-1.057-1.057C180.797,376.754,180.324,377.227,180.324,377.811z"/>
					</g>
				</g>
			</g>
		</g>
		<g>
			<g>
				<g>
					<path style="fill:#F6C8A6;" d="M215.101,198.051c0,0-7.819-11.903-4.127-15.538s10.612,12.993,11.605,15.538
						C223.572,200.597,215.101,198.051,215.101,198.051z"/>
					<g>
						<path style="fill:#2E4ECC;" d="M344.254,247.796c0,0-33.438,35.862-69.499,16.275c-37.792-20.527-42.659-51.195-42.659-51.195
							l-38.415,14.032c0,0,4.948,66.93,45.73,97.334c43.32,32.296,67.424,26.062,96.419,19.187
							C364.825,336.555,344.254,247.796,344.254,247.796z"/>
						<g>
							<path style="fill:#92CDFE;" d="M288.602,287.084c0,1.104-0.895,1.999-1.999,1.999c-1.104,0-1.999-0.895-1.999-1.999
								c0-1.104,0.895-1.999,1.999-1.999C287.707,285.086,288.602,285.98,288.602,287.084z"/>
							<path style="fill:#92CDFE;" d="M268.454,265.3c0,1.488-1.206,2.695-2.695,2.695c-1.488,0-2.695-1.206-2.695-2.695
								c0-1.488,1.206-2.695,2.695-2.695C267.247,262.606,268.454,263.812,268.454,265.3z"/>
							<circle style="fill:#92CDFE;" cx="322.759" cy="278.305" r="3.477"/>
							<circle style="fill:#92CDFE;" cx="298.3" cy="310.711" r="3.307"/>
							<path style="fill:#92CDFE;" d="M246.125,314.941c0,1.311-1.063,2.374-2.374,2.374c-1.311,0-2.374-1.063-2.374-2.374
								c0-1.311,1.063-2.374,2.374-2.374C245.062,312.568,246.125,313.63,246.125,314.941z"/>
							<path style="fill:#92CDFE;" d="M221.699,304.281c-0.443,0-0.864,0.09-1.251,0.247c1.24,1.741,2.533,3.451,3.889,5.118
								c0.434-0.563,0.702-1.26,0.702-2.026C225.038,305.776,223.543,304.281,221.699,304.281z"/>
							<path style="fill:#92CDFE;" d="M302.72,269.689c0,1.929,1.564,3.493,3.493,3.493c1.929,0,3.493-1.564,3.493-3.493
								c0-0.458-0.094-0.892-0.254-1.292c-2.179,0.538-4.424,0.952-6.724,1.212C302.728,269.637,302.72,269.662,302.72,269.689z"/>
						</g>
						<path style="fill:none;stroke:#0F110E;stroke-linecap:round;stroke-miterlimit:10;" d="M344.254,247.796
							c0,0-18.587,19.934-42.99,21.961"/>
						<g>
							<g>
								<path style="fill:#92CDFE;" d="M303.68,292.208c1.448-1.607,3.351-3.086,5.642-2.474c2.169,0.58,3.69,2.393,5.252,3.88
									c1.449,1.379,3.075,2.563,5.117,2.792c1.958,0.22,3.919-0.413,5.406-1.693c0.489-0.42-0.221-1.125-0.707-0.707
									c-1.585,1.363-3.863,1.81-5.844,1.13c-2.042-0.701-3.466-2.485-4.994-3.911c-1.485-1.387-3.366-2.713-5.493-2.64
									c-2.072,0.071-3.76,1.443-5.087,2.915C302.542,291.978,303.247,292.687,303.68,292.208L303.68,292.208z"/>
							</g>
							<g>
								<path style="fill:#92CDFE;" d="M275.657,311.315c2.717-1.653,4.086-4.898,3.402-7.997c-0.38-1.72-1.285-3.299-1.552-5.046
									c-0.219-1.428,0.022-3.171,1.348-3.992c0.546-0.338,0.044-1.203-0.505-0.863c-1.195,0.74-1.756,2.008-1.884,3.371
									c-0.156,1.655,0.433,3.199,0.986,4.726c0.598,1.648,1.054,3.294,0.593,5.039c-0.428,1.621-1.461,3.027-2.893,3.898
									C274.603,310.785,275.105,311.651,275.657,311.315L275.657,311.315z"/>
							</g>
							<g>
								<path style="fill:#92CDFE;" d="M255.69,275.689c3.844-0.866,7.647,1.681,8.318,5.559c0.17,0.982,0.083,1.945-0.133,2.911
									c-0.214,0.957-0.505,1.937-0.459,2.929c0.069,1.501,0.962,2.962,2.535,3.163c0.637,0.081,0.631-0.919,0-1
									c-0.891-0.114-1.391-1.085-1.51-1.884c-0.152-1.021,0.209-2.063,0.423-3.05c0.391-1.805,0.26-3.593-0.51-5.284
									c-1.538-3.376-5.352-5.115-8.929-4.308C254.796,274.866,255.062,275.831,255.69,275.689L255.69,275.689z"/>
							</g>
							<g>
								<path style="fill:#92CDFE;" d="M220.762,297.867c3.411-0.71,5.872-4.205,5.666-7.642c-0.129-2.156-1.431-3.746-2.55-5.493
									c-1.188-1.856-1.834-4.001-1.892-6.204c-0.064-2.456,0.586-4.877,1.912-6.947c0.348-0.543-0.517-1.046-0.863-0.505
									c-2.191,3.421-2.66,7.859-1.255,11.672c0.359,0.974,0.835,1.888,1.407,2.752c0.597,0.901,1.266,1.767,1.728,2.749
									c0.76,1.617,0.65,3.505-0.107,5.104c-0.837,1.769-2.375,3.147-4.313,3.55C219.867,297.034,220.133,297.998,220.762,297.867
									L220.762,297.867z"/>
							</g>
							<path style="fill:#92CDFE;" d="M274.688,279.344c1.622-0.716,3.339-1.503,4.5-2.896c1.268-1.522,1.369-3.398,1.603-5.279
								c0.175-1.406,0.63-2.688,1.435-3.795c-0.327-0.113-0.655-0.227-0.983-0.348c-0.467,0.677-0.841,1.422-1.087,2.222
								c-0.598,1.952-0.226,4.204-1.325,5.997c-1.011,1.65-2.95,2.486-4.648,3.236C273.596,278.74,274.104,279.601,274.688,279.344z
								"/>
							<path style="fill:#92CDFE;" d="M241.244,303.799c-1.659,0.526-3.368,1.125-4.709,2.275c-0.626,0.537-1.128,1.205-1.443,1.969
								c-0.416,1.007-0.444,2.108-0.625,3.169c-0.384,2.262-1.307,4.672-2.924,6.311c0.236,0.229,0.469,0.461,0.708,0.687
								c1.101-1.115,1.907-2.493,2.452-3.965c0.354-0.955,0.599-1.95,0.759-2.955c0.174-1.096,0.19-2.272,0.74-3.265
								c1.047-1.892,3.375-2.649,5.307-3.261C242.122,304.569,241.86,303.603,241.244,303.799z"/>
						</g>
					</g>
				</g>
				<polygon style="fill:#EB3341;" points="414.445,455.077 408.969,416.488 308.712,414.75 303.92,454.044 				"/>
				<g>
					<g>
						<rect x="121.403" y="194.883" style="fill:#FFFFFF;stroke:#160047;stroke-miterlimit:10;" width="139.388" height="89.45"/>
						<path style="fill:#2E4ECC;" d="M146.187,208.149c0,2.063-1.251,3.734-3.313,3.734c-2.062,0-3.733-1.671-3.733-3.734
							c0-2.062,1.671-3.313,3.733-3.313C144.936,204.836,146.187,206.088,146.187,208.149z"/>
						<path style="fill:#2E4ECC;" d="M242.188,208.149c0,2.063-1.252,3.734-3.313,3.734c-2.063,0-3.733-1.671-3.733-3.734
							c0-2.062,1.67-3.313,3.733-3.313C240.936,204.836,242.188,206.088,242.188,208.149z"/>
						<polyline style="fill:none;stroke:#160047;stroke-linecap:round;stroke-linejoin:round;stroke-miterlimit:10;" points="
							142.664,208.36 192.365,143.927 238.664,208.36 						"/>
						<path style="fill:#EB3341;" d="M197.398,146.908c0,2.946-1.788,5.333-4.733,5.333c-2.946,0-5.333-2.388-5.333-5.333
							c0-2.945,2.388-4.733,5.333-4.733C195.61,142.175,197.398,143.963,197.398,146.908z"/>
					</g>
					<g>
						
							<text transform="matrix(1 0 0 1 135.1767 251.765)" style="fill:#160047; font-family:'Montserrat-Bold'; font-size:25.9136px;">CLOSED</text>
						
							<text transform="matrix(1 0 0 1 155.9238 222.9769)" style="fill:#160047; font-family:'Montserrat-Medium'; font-size:7.3645px;">SORRY, WE ARE</text>
						
							<text transform="matrix(1 0 0 1 131.0643 267.4883)" style="fill:#160047; font-family:'Montserrat-SemiBold'; font-size:7px;">UNTIL THE OUTBREAK ENDS</text>
					</g>
				</g>
				<g>
					<path style="fill:#F6C8A6;" d="M200.746,193.14c0.445,1.928-0.242,3.734-1.535,4.032s-2.702-1.023-3.147-2.951
						c-0.445-1.928,0.242-3.734,1.535-4.032C198.891,189.89,200.3,191.212,200.746,193.14z"/>
					<path style="fill:#F6C8A6;" d="M196.531,195.402c-0.669,1.701-2.136,2.716-3.277,2.267c-1.14-0.449-1.522-2.191-0.853-3.892
						c0.669-1.701,2.136-2.716,3.276-2.268C196.818,191.959,197.2,193.702,196.531,195.402z"/>
					<path style="fill:#F6C8A6;" d="M204.838,192.326c0.445,1.928-0.242,3.734-1.535,4.032c-1.293,0.299-2.702-1.023-3.147-2.951
						c-0.445-1.928,0.242-3.734,1.535-4.032C202.984,189.076,204.393,190.397,204.838,192.326z"/>
					<path style="fill:#F6C8A6;" d="M210.54,193.14c0.445,1.928-0.242,3.734-1.535,4.032s-2.702-1.023-3.147-2.951
						c-0.445-1.928,0.242-3.734,1.535-4.032C208.685,189.89,210.094,191.212,210.54,193.14z"/>
				</g>
			</g>
			<g>
				<path style="fill:#2E4ECC;" d="M302.78,431.717c-3.686-1.822-7.409-4.262-7.366-7.483
					c1.214-100.005,28.201-179.942,61.314-179.942c6.182,0,12.924,2.319,18.55,7.501c4.489,4.134,10.99,7.391,14.936,14.402
					c17.609,31.282,27.02,91.595,27.827,158.038c-0.872,3.792-3.574,5.895-7.366,7.483
					C385.795,442.138,326.961,443.67,302.78,431.717z"/>
				<path style="fill:none;stroke:#0F110E;stroke-linecap:round;stroke-miterlimit:10;" d="M295.794,409.188
					c3.585-92.858,29.499-164.895,60.933-164.895"/>
				<g>
					<path style="fill:#FFFFFF;stroke:#160047;stroke-miterlimit:10;" d="M328.972,306.806c-0.178-2.516,1.313-4.596,2.796-6.49
						c1.538-1.965,3.14-3.883,4.767-5.774c3.208-3.731,6.565-7.335,10.058-10.801c6.895-6.842,14.317-13.156,22.2-18.832
						c4.515-3.251,9.175-6.295,13.959-9.135c1.659-0.985,0.152-3.579-1.514-2.59c-17.588,10.44-33.486,23.727-46.824,39.237
						c-1.848,2.149-3.67,4.33-5.394,6.58c-1.737,2.268-3.256,4.846-3.047,7.805C326.107,308.721,329.108,308.736,328.972,306.806
						L328.972,306.806z"/>
				</g>
				<g>
					<g>
						<g>
							<path style="fill:#FFFFFF;stroke:#160047;stroke-miterlimit:10;" d="M388.863,398.837
								c10.005-0.372,19.896-2.384,29.231-6.004c1.781-0.691,1.007-3.592-0.798-2.893c-9.093,3.526-18.686,5.535-28.434,5.897
								C386.938,395.909,386.929,398.909,388.863,398.837L388.863,398.837z"/>
						</g>
						<g>
							<path style="fill:#FFFFFF;stroke:#160047;stroke-miterlimit:10;" d="M416.045,391.546c-2.551,3.229-4.921,6.591-7.047,10.115
								c-1.824,3.023-4.007,6.529-3.4,10.217c0.235,1.43,0.945,2.867,2.203,3.661c1.602,1.011,3.573,0.708,5.19-0.097
								c3.344-1.664,5.013-5.358,5.583-8.87c0.763-4.703,0.656-9.587,0.046-14.299c-0.105-0.81-0.615-1.491-1.5-1.5
								c-0.73-0.008-1.604,0.697-1.5,1.5c0.558,4.31,0.719,8.787,0.122,13.105c-0.272,1.969-0.796,4.02-2.029,5.622
								c-0.816,1.06-2.71,2.76-4.173,2.083c-1.067-0.494-1.15-2.191-1.017-3.187c0.272-2.036,1.417-3.92,2.435-5.659
								c2.156-3.684,4.564-7.222,7.21-10.571C419.35,392.168,417.241,390.031,416.045,391.546L416.045,391.546z"/>
						</g>
						<g>
							<path style="fill:#FFFFFF;stroke:#160047;stroke-miterlimit:10;" d="M417.325,393.15c7.421,1.7,12.744,7.447,18.357,12.172
								c5.801,4.883,12.818,9.189,20.7,7.945c1.902-0.3,1.094-3.191-0.798-2.893c-7.551,1.191-14.337-4.126-19.644-8.786
								c-5.302-4.655-10.732-9.708-17.818-11.331C416.243,389.826,415.441,392.718,417.325,393.15L417.325,393.15z"/>
						</g>
						<g>
							<path style="fill:#FFFFFF;stroke:#160047;stroke-miterlimit:10;" d="M418.725,393.038c5.142-2.704,9.5-6.78,12.59-11.694
								c1.031-1.639-1.564-3.147-2.59-1.514c-2.827,4.496-6.817,8.148-11.514,10.618c-0.717,0.377-0.934,1.375-0.538,2.052
								C417.098,393.226,418.006,393.416,418.725,393.038L418.725,393.038z"/>
						</g>
						<path style="fill:#FFFFFF;stroke:#160047;stroke-miterlimit:10;" d="M420.303,392.414c0,1.941-1.573,3.514-3.514,3.514
							c-1.941,0-3.514-1.573-3.514-3.514c0-1.941,1.573-3.514,3.514-3.514C418.73,388.9,420.303,390.473,420.303,392.414z"/>
					</g>
					<path style="fill:#FFFFFF;stroke:#160047;stroke-miterlimit:10;" d="M316.137,287.372l19.725,5.047
						c0,0,5.026,78.573,20.866,89.484c15.84,10.91,27.684,12.744,39.355,12.153l1.614,59.951l-112.406-0.413
						C285.29,453.594,295.503,337.806,316.137,287.372z"/>
				</g>
			</g>
			<g>
				<g>
					<path style="fill:#2E4ECC;" d="M412.62,312.553c-5.711-29.955-20.125-47.993-30.507-55.312
						c-1.698-1.198-35.206,33.209-35.206,33.209s-2.729,22.437-20.421,33.907l-41.076-16.836l-32.822,28.833
						c2.301,33.349,43.614,64.079,86.863,66.614C382.701,405.501,421.979,361.646,412.62,312.553z"/>
					<g>
						<g>
							<path style="fill:#92CDFE;" d="M285.341,340.808c-1.669,3.001-5.695,3.3-8.38,4.969c-1.352,0.84-2.441,2.008-2.898,3.558
								c-0.427,1.45-0.207,3.017,0.843,4.143c0.66,0.707,1.719-0.355,1.061-1.061c-0.888-0.952-0.711-2.411-0.129-3.478
								c0.711-1.304,2.07-2.064,3.384-2.648c2.696-1.199,5.868-1.944,7.415-4.726C287.106,340.72,285.811,339.963,285.341,340.808z"
								/>
							<path style="fill:#92CDFE;" d="M307.557,369.141c0.41-0.868-0.883-1.63-1.295-0.757c-1.193,2.526-0.572,5.224,0.478,7.686
								c1.147,2.689,3.072,5.481,2.536,8.548c-0.165,0.944,1.28,1.349,1.447,0.399c0.495-2.835-0.651-5.414-1.857-7.914
								C307.716,374.721,306.32,371.76,307.557,369.141z"/>
							<path style="fill:#92CDFE;" d="M354.79,332.075c-6.273-0.073-6.137,8.27-8.449,12.175c-1.392,2.352-3.568,4.33-6.264,5.008
								c-2.62,0.659-5.499,0.068-7.456-1.839c-0.692-0.674-1.753,0.385-1.061,1.061c3.914,3.815,10.121,3.007,13.849-0.62
								c2.042-1.988,3.254-4.535,3.996-7.253c0.751-2.747,1.742-7.074,5.384-7.032C355.756,333.586,355.757,332.086,354.79,332.075z
								"/>
							<path style="fill:#92CDFE;" d="M374.9,380.803c-1.4,0.325-2.869,0.05-4.09-0.699c-1.376-0.846-2.079-2.199-2.554-3.698
								c-0.481-1.518-0.825-3.114-1.747-4.443c-0.859-1.239-2.037-2.134-3.571-2.266c-0.962-0.082-0.956,1.418,0,1.5
								c1.451,0.124,2.436,1.526,2.959,2.757c0.686,1.616,0.916,3.388,1.765,4.944c1.465,2.684,4.683,4.038,7.637,3.352
								C376.238,382.031,375.841,380.584,374.9,380.803z"/>
							<path style="fill:#92CDFE;" d="M398.585,321.56c0.801-0.531,0.051-1.83-0.757-1.295c-3.212,2.127-3.694,6.103-4.885,9.464
								c-1.394,3.933-4.531,7.118-8.442,8.574c-0.897,0.334-0.509,1.784,0.399,1.446c3.823-1.422,7.064-4.271,8.816-7.977
								C395.257,328.512,395.327,323.718,398.585,321.56z"/>
							<path style="fill:#92CDFE;" d="M376.915,300.684c-2.025-1.814-2.873-4.71-2.194-7.332c0.242-0.935-1.204-1.334-1.446-0.399
								c-0.653,2.521-0.161,5.3,1.367,7.42c0.783,1.086,1.793,1.794,2.816,2.628c1.125,0.918,1.755,2.229,1.004,3.613
								c-0.461,0.849,0.834,1.607,1.295,0.757c0.651-1.199,0.715-2.613,0.108-3.846
								C379.234,302.246,377.936,301.598,376.915,300.684z"/>
							<path style="fill:#92CDFE;" d="M303.392,317.307c1.162,1.336,2.539,2.603,3.233,4.267c0.838,2.007,0.422,4.389-0.971,6.042
								c-0.618,0.734,0.438,1.8,1.061,1.061c1.254-1.489,1.952-3.376,1.828-5.337c-0.116-1.837-0.943-3.381-2.073-4.793
								c-0.985-1.231-2.167-2.329-3.047-3.643l-2.159-0.885C301.715,315.247,302.533,316.32,303.392,317.307z"/>
							<path style="fill:#92CDFE;" d="M341.632,403.053c-0.941-1.499-1.493-3.178-0.755-4.817c0.975-2.164,3.308-3.5,3.339-6.083
								c0.012-0.966-1.488-0.966-1.5,0c-0.015,1.292-0.937,2.292-1.706,3.242c-0.846,1.046-1.662,2.139-1.885,3.501
								c-0.237,1.447,0.12,2.818,0.764,4.089C340.471,403.015,341.052,403.04,341.632,403.053z"/>
							<path style="fill:#92CDFE;" d="M401.941,363.516c-3.237-1.02-5.084-4.78-4.076-7.982c0.291-0.923-1.157-1.318-1.446-0.399
								c-0.99,3.143,0.276,6.714,2.883,8.683c0.644,0.486,1.354,0.852,2.12,1.104c0.747,0.246,1.596,0.385,2.274,0.81
								c0.241-0.421,0.478-0.845,0.712-1.271C403.681,364.044,402.825,363.794,401.941,363.516z"/>
							<path style="fill:#92CDFE;" d="M396.372,285.185c1.547,0.724,2.947,0.584,4.519,0.045c1.201-0.413,2.452-0.221,3.276,0.742
								c-0.446-0.951-0.901-1.876-1.362-2.783c-0.085-0.015-0.169-0.036-0.256-0.047c-0.732-0.09-1.439,0.041-2.135,0.28
								c-0.744,0.255-1.438,0.527-2.235,0.404c-3.304-0.509-4.413-4.47-5.185-7.308c-0.315-1.159-2.046-0.666-1.73,0.498
								C392.126,280.187,393.256,283.726,396.372,285.185z"/>
						</g>
						<g>
							<path style="fill:#92CDFE;" d="M317.736,350.178c0,2.201-1.785,3.986-3.986,3.986s-3.986-1.785-3.986-3.986
								c0-2.202,1.785-3.986,3.986-3.986S317.736,347.976,317.736,350.178z"/>
							<path style="fill:#92CDFE;" d="M350.691,373.947c0,1.933-1.567,3.5-3.5,3.5c-1.933,0-3.5-1.567-3.5-3.5
								c0-1.933,1.567-3.5,3.5-3.5C349.124,370.447,350.691,372.014,350.691,373.947z"/>
							<circle style="fill:#92CDFE;" cx="276.715" cy="321.184" r="4.209"/>
							<circle style="fill:#92CDFE;" cx="354.993" cy="317.283" r="3.63"/>
							<path style="fill:#92CDFE;" d="M379.849,350.763c0,2.525-2.047,4.572-4.572,4.572c-2.525,0-4.572-2.047-4.572-4.572
								s2.047-4.572,4.572-4.572C377.803,346.191,379.849,348.238,379.849,350.763z"/>
							<circle style="fill:#92CDFE;" cx="356.727" cy="281.782" r="3.63"/>
							<path style="fill:#92CDFE;" d="M413.103,328.146c-2.727,0-4.938,2.211-4.938,4.938c0,2.727,2.211,4.938,4.938,4.938
								c0.048,0,0.093-0.013,0.141-0.014c0.455-3.201,0.716-6.462,0.76-9.771C413.711,328.183,413.411,328.146,413.103,328.146z"/>
							<path style="fill:#92CDFE;" d="M281.589,381.903c1.332-1.031,2.193-2.642,2.193-4.457c0-3.114-2.524-5.638-5.638-5.638
								c-2.179,0-4.065,1.238-5.004,3.047C275.765,377.326,278.591,379.681,281.589,381.903z"/>
						</g>
					</g>
					<g>
						<path style="fill:none;stroke:#0F110E;stroke-linecap:round;stroke-miterlimit:10;" d="M387.957,262.167
							c9.286,9.559,19.903,25.419,24.662,50.386c9.359,49.093-29.919,92.948-73.168,90.414
							c-43.249-2.534-84.562-33.265-86.863-66.614l32.822-28.833l53.119,21.772"/>
						<path style="fill:none;stroke:#0F110E;stroke-linecap:round;stroke-miterlimit:10;" d="M346.907,290.45
							c0,0-1.862,22.642-20.421,33.907"/>
					</g>
				</g>
				<g>
					<g>
						<path style="fill:#F6C8A6;" d="M246.652,281.792c0,0-2.746-9.373-0.774-10.609c2.995-1.878,8.544,11.317,10.153,13.773
							c1.61,2.456,5.458,11.142,6.94,14.728c1.482,3.587,5.483,9.507,5.483,9.507l-12.767,14.107c0,0-18.422-14.956-26.795-24.126
							c-8.374-9.17-13.636-18.726-11.623-20.818c2.013-2.092,3.312,1.603,3.312,1.603s-2.523-5.297-1.262-6.526
							c1.262-1.229,4.244,2.238,4.244,2.238s-3.519-5.962-1.712-7.611c1.807-1.648,6.639,5.606,6.639,5.606s-3.15-6.433-1.011-7.399
							c2.139-0.966,8.81,8.298,13.538,14.759C245.745,287.486,247.354,284.562,246.652,281.792z"/>
						<g>
							<g>
								<g>
									<path style="fill:#EF8576;" d="M219.547,278.841c1.799,3.464,4.114,6.643,6.853,9.424c0.339,0.344,0.87-0.186,0.53-0.53
										c-2.697-2.738-4.964-5.862-6.735-9.272C219.972,278.034,219.324,278.413,219.547,278.841L219.547,278.841z"/>
								</g>
							</g>
							<g>
								<g>
									<path style="fill:#EF8576;" d="M222.256,273.371c2.131,3.611,4.525,7.058,7.158,10.321c0.303,0.376,0.831-0.158,0.53-0.53
										c-2.592-3.213-4.943-6.614-7.041-10.169C222.658,272.577,222.009,272.954,222.256,273.371L222.256,273.371z"/>
								</g>
							</g>
							<g>
								<g>
									<path style="fill:#EF8576;" d="M226.926,271.372c2.329,3.197,4.658,6.395,6.988,9.592c0.281,0.386,0.932,0.012,0.648-0.379
										c-2.329-3.197-4.659-6.395-6.988-9.592C227.292,270.607,226.641,270.981,226.926,271.372L226.926,271.372z"/>
								</g>
							</g>
						</g>
					</g>
					<g>
						<g>
							<path style="fill:#FFFFFF;stroke:#2E4ECC;stroke-miterlimit:10;" d="M253.922,340.924
								c-4.381-9.099-6.592-15.727-6.592-15.727l25.275-25.393l14.679,8.845L253.922,340.924z"/>
							<line style="fill:none;stroke:#2E4ECC;stroke-miterlimit:10;" x1="258.647" y1="336.353" x2="250.281" y2="322.233"/>
							<line style="fill:none;stroke:#2E4ECC;stroke-miterlimit:10;" x1="265.268" y1="329.948" x2="255.177" y2="317.315"/>
							<line style="fill:none;stroke:#2E4ECC;stroke-miterlimit:10;" x1="272.506" y1="322.946" x2="261.669" y2="310.747"/>
							<line style="fill:none;stroke:#2E4ECC;stroke-miterlimit:10;" x1="280.924" y1="314.803" x2="268.211" y2="304.22"/>
						</g>
					</g>
				</g>
			</g>
			<g>
				<g>
					<g>
						<g>
							<path style="fill:#F6C8A6;" d="M337.092,174.852l13.264-0.503c8.818-0.334,16.344,7.606,16.725,17.646l0.78,20.56
								c0.022,0.579,0.014,1.152-0.012,1.72c0.166,0.601,0.273,1.226,0.298,1.874l0.475,12.516l0.026,0.697l0.475,12.516
								c0.172,4.542-3.403,8.399-7.944,8.571l-5.262,0.2c-4.542,0.172-8.398-3.403-8.571-7.944l-0.42-11.076l-7.669,0.291
								c-8.818,0.335-16.344-7.606-16.725-17.646l-0.78-20.56C321.371,183.674,328.274,175.186,337.092,174.852z"/>
							<g>
								<path style="fill:#161522;" d="M330.686,201.855c-0.647,1.409-0.028,3.075,1.381,3.721c1.409,0.646,3.075,0.028,3.722-1.381
									c0.646-1.409,0.028-3.075-1.381-3.721C332.998,199.828,331.332,200.446,330.686,201.855z"/>
							</g>
							<g>
								<path style="fill:#F6C8A6;" d="M322.542,199.608c-0.909,3.202-1.891,6.537-4.173,8.96c-0.068,0.072-0.141,0.153-0.145,0.251
									c-0.006,0.139,0.123,0.241,0.238,0.318c1.288,0.852,2.659,1.58,4.087,2.169"/>
								<g>
									<path style="fill:#101010;" d="M322.18,199.508c-0.748,2.635-1.522,5.344-3.115,7.613c-0.2,0.285-0.414,0.561-0.641,0.825
										c-0.172,0.199-0.409,0.391-0.513,0.637c-0.216,0.511,0.254,0.81,0.626,1.049c1.241,0.798,2.552,1.466,3.912,2.034
										c0.445,0.186,0.639-0.54,0.199-0.723c-1.266-0.528-2.487-1.165-3.645-1.902c-0.337-0.215-0.436-0.131-0.177-0.422
										c0.201-0.225,0.392-0.459,0.575-0.699c0.356-0.465,0.679-0.955,0.969-1.464c1.198-2.097,1.875-4.441,2.531-6.75
										C323.036,199.243,322.312,199.044,322.18,199.508L322.18,199.508z"/>
								</g>
							</g>
							<g>
								<g>
									<path style="fill:#161522;" d="M332.171,196.792c1.75,1.103,3.484,2.231,5.202,3.382c0.536,0.359,1.037-0.507,0.505-0.863
										c-1.718-1.152-3.453-2.279-5.202-3.382C332.13,195.584,331.628,196.449,332.171,196.792L332.171,196.792z"/>
								</g>
							</g>
						</g>
						<g>
							<path style="fill:#16004D;" d="M314.7,152.716c7.917-3.759,20.004,14.171,20.004,14.171s-7.736-11.739,1.109-14.473
								c8.845-2.734,19.286,13.642,19.286,13.642s34.495,5.037,32.796,37.019c0,0-0.498,18.218-19.337,23.947l-0.631-19.616
								l-2.702-1.87l-1.865,6.386c0,0-7.44,1.619-12.282-10.165c-7.947-1.818-19.222-5.922-30.125-15.208
								C301.132,169.664,306.783,156.475,314.7,152.716z"/>
							<g>
								<path style="fill:#F6C8A6;" d="M379.951,211.23c-0.124,5.627-4.823,10.088-10.497,9.964
									c-5.674-0.124-10.173-4.787-10.049-10.415c0.123-5.627,4.822-10.088,10.496-9.964
									C375.575,200.939,380.074,205.602,379.951,211.23z"/>
								<g>
									<g>
										<path style="fill:#EF8576;" d="M364.561,212.252c-0.085-2.024,0.847-4.419,2.881-5.294
											c1.108-0.477,2.355-0.485,3.533-0.336c0.478,0.06,0.473-0.69,0-0.75c-2.023-0.255-4.223,0.082-5.617,1.703
											c-0.908,1.055-1.355,2.411-1.504,3.778c-0.033,0.297-0.056,0.601-0.044,0.9
											C363.831,212.733,364.581,212.736,364.561,212.252L364.561,212.252z"/>
									</g>
								</g>
							</g>
						</g>
						<circle style="fill:#EF8576;" cx="343.985" cy="211.004" r="6.923"/>
					</g>
					<g>
						<path style="fill:none;stroke:#16004D;stroke-miterlimit:10;" d="M388.029,161.408c-0.172-0.444-5.223-15.151,4.772-20.732
							c8.592-4.797,16.122-0.825,16.397-10.035c0.275-9.21,1.1-28.179,21.169-32.853c20.069-4.674,32.303,12.509,35.602,24.743
							c3.299,12.234,2.337,28.179-7.56,32.99c-9.897,4.811-25.69-4.604-27.904,5.887
							C426.783,179.043,397.789,186.539,388.029,161.408z"/>
						<path style="fill:#2E4ECC;" d="M386.602,170.829c0,2.388-1.936,4.324-4.324,4.324s-4.324-1.936-4.324-4.324
							s1.936-4.324,4.324-4.324S386.602,168.441,386.602,170.829z"/>
					</g>
					<g>
						<path style="fill:#FFFFFF;" d="M317.002,206.161l26.983,4.843c0,0-2.21,20.251-6.923,20.826
							C327.753,232.965,317.653,226.766,317.002,206.161z"/>
						<polyline style="fill:none;stroke:#FFFFFF;stroke-miterlimit:10;" points="359.403,207.384 343.445,211.565 341.599,219.06 
							369.129,224.886 						"/>
						<g>
							<path style="fill:none;stroke:#92CDFE;stroke-linecap:round;stroke-miterlimit:10;" d="M317.002,206.161
								c0,0-1.376,26.86,20.624,25.797"/>
							
								<line style="fill:none;stroke:#92CDFE;stroke-linecap:round;stroke-miterlimit:10;" x1="332.438" y1="212.104" x2="317.002" y2="209.207"/>
						</g>
					</g>
				</g>
				<g>
					<g>
						<path style="fill:#FFFFFF;" d="M374.889,254.57l-33.441-0.331c-1.478-0.015-2.663-1.047-2.647-2.307l0.154-12.109
							c0.016-1.261,1.229-2.272,2.709-2.258l33.441,0.331c1.478,0.015,2.663,1.047,2.647,2.307l-0.154,12.11
							C377.582,253.573,376.368,254.584,374.889,254.57z"/>
						<path style="fill:none;stroke:#2E4ECC;stroke-miterlimit:10;" d="M374.889,254.57l-33.441-0.331
							c-1.478-0.015-2.663-1.047-2.647-2.307l0.154-12.109c0.016-1.261,1.229-2.272,2.709-2.258l33.441,0.331
							c1.478,0.015,2.663,1.047,2.647,2.307l-0.154,12.11C377.582,253.573,376.368,254.584,374.889,254.57z"/>
					</g>
					<g>
						<line style="fill:none;stroke:#2E4ECC;stroke-miterlimit:10;" x1="344.402" y1="237.591" x2="344.402" y2="254.275"/>
						<line style="fill:none;stroke:#2E4ECC;stroke-miterlimit:10;" x1="351.266" y1="237.591" x2="351.266" y2="254.275"/>
						<line style="fill:none;stroke:#2E4ECC;stroke-miterlimit:10;" x1="358.13" y1="237.591" x2="358.13" y2="254.275"/>
						<line style="fill:none;stroke:#2E4ECC;stroke-miterlimit:10;" x1="364.993" y1="237.591" x2="364.993" y2="254.275"/>
						<line style="fill:none;stroke:#2E4ECC;stroke-miterlimit:10;" x1="371.857" y1="237.591" x2="371.857" y2="254.275"/>
					</g>
				</g>
			</g>
		</g>
		<g>
			<g>
				<path style="fill:#161522;" d="M455.994,453.41c-3.75,0-7.5,0-11.251,0c-10.115,0-20.229,0-30.344,0
					c-14.996,0-29.991,0-44.987,0c-18.295,0-36.591,0-54.886,0c-19.969,0-39.937,0-59.906,0c-20.294,0-40.588,0-60.882,0
					c-18.793,0-37.586,0-56.379,0c-15.938,0-31.876,0-47.815,0c-11.459,0-22.918,0-34.377,0c-5.413,0-10.836-0.095-16.249,0
					c-0.237,0.004-0.474,0-0.71,0c-1.609,0-1.611,2.5,0,2.5c3.75,0,7.5,0,11.251,0c10.114,0,20.229,0,30.344,0
					c14.996,0,29.992,0,44.987,0c18.295,0,36.591,0,54.886,0c19.969,0,39.937,0,59.906,0c20.294,0,40.588,0,60.882,0
					c18.793,0,37.586,0,56.379,0c15.938,0,31.876,0,47.815,0c11.459,0,22.918,0,34.377,0c5.413,0,10.836,0.095,16.249,0
					c0.237-0.004,0.474,0,0.71,0C457.602,455.91,457.605,453.41,455.994,453.41L455.994,453.41z"/>
			</g>
		</g>
	</g>
</g>
</svg>
